<svg xmlns="http://www.w3.org/2000/svg" viewBox="0 0 300 300">
  <!-- Gradient background for depth -->

  
  <!-- Base circular background -->
  <circle cx="150" cy="150" r="140" fill="url(#bgGradient)"/>
  
  <!-- Dynamic mountain range - more abstract and fluid -->
  <path d="M50 210 L150 70 L250 210" fill="#1E90FF" stroke="none" opacity="0.9"/>
  
  <!-- Secondary peak for dimension -->
  <path d="M100 210 L170 110 L240 210" fill="#1657a0" stroke="none" opacity="0.8"/>
  
  <!-- Powder tracks - multiple dynamic lines -->
  <path d="M150 70 C180 110, 170 150, 140 180 C120 195, 100 205, 80 210" fill="none" stroke="#00FF99" stroke-width="3" stroke-linecap="round" stroke-linejoin="round"/>
  <path d="M170 110 C190 140, 180 170, 150 195" fill="none" stroke="#00FF99" stroke-width="3" stroke-linecap="round" stroke-linejoin="round" opacity="0.7"/>
  
  <!-- Central navigation element - more dynamic -->
  <circle cx="150" cy="140" r="22" fill="#FFFFFF" stroke="none"/>
  <circle cx="150" cy="140" r="12" fill="#00FF99" stroke="none"/>
  <circle cx="150" cy="140" r="4" fill="#FFFFFF" stroke="none"/>
  
  <!-- Compass points - subtle glow effect -->
  <g opacity="0.9">
    <line x1="150" y1="105" x2="150" y2="120" stroke="#FFFFFF" stroke-width="3" stroke-linecap="round"/>
    <line x1="115" y1="140" x2="130" y2="140" stroke="#FFFFFF" stroke-width="3" stroke-linecap="round"/>
    <line x1="150" y1="160" x2="150" y2="175" stroke="#FFFFFF" stroke-width="3" stroke-linecap="round"/>
    <line x1="170" y1="140" x2="185" y2="140" stroke="#FFFFFF" stroke-width="3" stroke-linecap="round"/>
  </g>
  
  <!-- Subtle radial highlights for depth -->
  <circle cx="150" cy="140" r="35" fill="none" stroke="#FFFFFF" stroke-width="1" opacity="0.2"/>
  <circle cx="150" cy="140" r="50" fill="none" stroke="#FFFFFF" stroke-width="1" opacity="0.1"/>
</svg>